<?xml version="1.0" encoding="UTF-8"?>
<svg width="55.557mm" height="55.557mm" version="1.1" viewBox="0 0 55.55724 55.55724">
<g transform="translate(-15.5 -20.905)">
<path d="m49.236 53.67s-6.0878-19.94-22.215-6.3478c-10.3 8.6812-12.464 16.499-6.203 23.516 7.1388 8.0014 16.301 3.8953 25.966-10.387" fill="none" stroke="#36b" stroke-width="3"/>
<path d="m36.975 38.666s14.57-21.929 26.543-12.407c11.973 9.5217 1.9956 17.866-2.3081 22.362-6.4915 6.7806-14.408 11.996-20.629 5.0494-3.8794-4.3324-4.3277-7.6462-4.3277-7.6462" fill="none" stroke="#36b" stroke-width="3"/>
<path d="m61.313 40.246h-3.6787l1.936 4.6647c0.13471 0.32337-0.01958 0.68598-0.32747 0.82317l-1.7049 0.73499c-0.31772 0.13713-0.67422-0.01936-0.80906-0.33321l-1.8397-4.4295-3.0052 3.0575c-0.40047 0.40736-1.05 0.09324-1.05-0.44098v-14.738c0-0.56252 0.69082-0.83679 1.0499-0.44098l9.8624 10.034c0.39783 0.38345 0.10406 1.0682-0.43342 1.0682z" fill="#fff" stroke="#000"/>
<path d="m37.341 62.869h-3.6787l1.936 4.6647c0.13472 0.32337-0.01958 0.68598-0.32747 0.82317l-1.7049 0.73499c-0.31772 0.13713-0.67422-0.01936-0.80906-0.33321l-1.8397-4.4295-3.0052 3.0575c-0.40047 0.40736-1.05 0.09324-1.05-0.44098v-14.738c0-0.56253 0.69082-0.83679 1.0499-0.44098l9.8624 10.034c0.39783 0.38345 0.10406 1.0682-0.43342 1.0682z" fill="#fff" stroke="#000"/>
</g>
</svg>
